# xmcd
#
# Track frame offsets:
# 150
# 13233
# 25456
# 39863
# 54203
# 64384
# 76771
# 89206
# 100250
# 116109
# 129857
# 149265
# 165478
# 175833
# 189256
# 206829
# 216806
# 227784
# 243126
# 258241
# 270542
# 285566
#
# Disc length: 4012 seconds
#
#
# Revision: 0
# Processed by: cddbd v1.5.2PL0 Copyright (c) Steve Scherf et al.
# Submitted via: FreeRIP 2.96 
#
DISCID=320faa16
DTITLE=Baby Som - Forrozão Baby Som Toca as Antigas ao vivo vol.14
DYEAR=2008
DGENRE=Easy Listening
TTITLE0=De volta pro meu coração
TTITLE1=Vem me renovar
TTITLE2=Cego de amor
TTITLE3=Amor sem fim
TTITLE4=Condenada
TTITLE5=Deixa como está
TTITLE6=Sonho real
TTITLE7=Cara metade
TTITLE8=Meu vaqueiro meu peão
TTITLE9=Por favor
TTITLE10=Pra recomeçar
TTITLE11=Cavaleiro alado
TTITLE12=Nega princesa
TTITLE13=Vida de vaqueiro
TTITLE14=Coração velho
TTITLE15=Longe de você
TTITLE16=Solidão de um caminhoneiro
TTITLE17=Mudou nosso amor
TTITLE18=Tarde demais
TTITLE19=Brilho da lua
TTITLE20=Você faz tudo acontecer
TTITLE21=Paixão proibida
EXTD=
EXTT0=
EXTT1=
EXTT2=
EXTT3=
EXTT4=
EXTT5=
EXTT6=
EXTT7=
EXTT8=
EXTT9=
EXTT10=
EXTT11=
EXTT12=
EXTT13=
EXTT14=
EXTT15=
EXTT16=
EXTT17=
EXTT18=
EXTT19=
EXTT20=
EXTT21=
PLAYORDER=
